<svg width="606" height="446" viewBox="0 0 606 446" fill="none" xmlns="http://www.w3.org/2000/svg">
<g clip-path="url(#clip0_707_3)">
<path d="M297.286 77.2753L310.488 55.8165H318.296L298.336 85.294H290.69L291.232 55.8165H298.98L297.286 77.2753Z" fill="#5479F7"/>
<path d="M339.398 71.1573C338.457 73.9314 337.03 76.5167 335.183 78.7926C333.49 80.9072 331.375 82.6469 328.971 83.9008C326.742 85.0657 324.265 85.6805 321.748 85.6935C319.281 85.6935 317.284 85.1158 315.796 83.9602C315.03 83.3606 314.391 82.6143 313.917 81.7649C313.443 80.9156 313.144 79.9803 313.037 79.014C312.709 76.8541 312.999 74.39 313.908 71.6217L314.482 69.964C315.419 67.1877 316.844 64.6004 318.691 62.3233C320.391 60.1993 322.52 58.4569 324.94 57.2097C327.183 56.0355 329.675 55.4169 332.207 55.4061C334.663 55.4061 336.647 56.0001 338.159 57.1881C338.927 57.8121 339.564 58.5811 340.034 59.4512C340.503 60.3212 340.797 61.2752 340.897 62.2585C341.203 64.4508 340.873 66.9707 339.907 69.8182L339.398 71.1573ZM332.716 69.9208C333.726 66.9941 334.012 64.7712 333.576 63.252C333.139 61.7329 332.025 60.9733 330.232 60.9733C326.726 60.9733 323.948 63.6462 321.9 68.992L321.131 71.1519C320.136 74.0318 319.84 76.2529 320.244 77.8153C320.648 79.3776 321.781 80.1534 323.642 80.1426C325.406 80.1426 327.029 79.3794 328.512 77.8531C329.994 76.3267 331.239 74.1344 332.245 71.2761L332.716 69.9208Z" fill="#5479F7"/>
<path d="M367.485 61.2973H358.779L350.485 85.2886H343.494L351.789 61.2973H343.245L345.144 55.8112H369.384L367.485 61.2973Z" fill="#5479F7"/>
<path d="M384.448 72.7773H373.453L371.018 79.824H384.004L382.11 85.2886H362.134L372.328 55.8112H392.347L390.448 61.2973H377.424L375.26 67.5125H386.255L384.448 72.7773Z" fill="#5479F7"/>
<path d="M428.773 406.382C541.072 336.336 542.598 210.434 542.56 204.662C542.165 141.576 513.142 50.4437 434.719 15.5341C397.553 -1.01087 338.803 -9.58034 296.913 18.2826C257.799 44.3041 274.751 74.5754 231.579 126.538C181.882 186.383 141.907 178.3 108.588 230.564C86.5773 265.085 96.2895 306.869 99.0706 318.851C119.485 406.711 226.644 436.912 238.667 440.103C334.09 465.428 412.622 416.452 428.773 406.382Z" fill="#CADDFF"/>
<path d="M452.336 95.3753L451.059 90.7045L445.762 90.9421C445.28 89.9235 444.712 88.948 444.063 88.0262L446.866 83.5444L443.414 80.1371L438.95 82.9882C438.02 82.3521 437.039 81.794 436.017 81.3197L436.201 76.0279L431.51 74.8021L429.075 79.4945C427.95 79.4001 426.819 79.4001 425.694 79.4945L423.205 74.8237L418.524 76.1035L418.768 81.3899C417.748 81.8736 416.77 82.4426 415.846 83.0908L411.355 80.2883L407.946 83.7334L410.798 88.1936C410.16 89.1214 409.601 90.1003 409.126 91.1203L403.829 90.9421L402.59 95.6345L407.286 98.0698C407.192 99.1928 407.192 100.322 407.286 101.445L402.606 103.929L403.888 108.605L409.18 108.362C409.665 109.38 410.235 110.355 410.884 111.278L408.082 115.765L411.528 119.172L415.998 116.321C416.928 116.956 417.909 117.514 418.93 117.99L418.746 123.276L423.437 124.507L425.872 119.815C426.998 119.9 428.129 119.891 429.254 119.788L431.743 124.459L436.423 123.184L436.18 117.898C437.2 117.414 438.177 116.845 439.101 116.197L443.592 118.994L447.001 115.549L444.144 111.094C444.784 110.166 445.343 109.185 445.816 108.162L451.113 108.346L452.347 103.659L447.645 101.229C447.739 100.106 447.739 98.9768 447.645 97.8538L452.336 95.3753ZM430.79 111.688C428.408 112.339 425.885 112.27 423.541 111.491C421.197 110.711 419.137 109.255 417.622 107.308C416.107 105.36 415.205 103.007 415.03 100.548C414.854 98.0886 415.413 95.6325 416.637 93.4901C417.86 91.3478 419.692 89.6155 421.901 88.5122C424.111 87.4089 426.598 86.9842 429.05 87.2917C431.501 87.5993 433.806 88.6253 435.673 90.24C437.54 91.8547 438.886 93.9857 439.54 96.3635C439.974 97.9437 440.093 99.5941 439.888 101.22C439.683 102.846 439.158 104.416 438.344 105.839C437.531 107.262 436.444 108.512 435.146 109.515C433.848 110.519 432.364 111.257 430.78 111.688H430.79Z" fill="#99B9FF"/>
<path d="M506.269 102.692C506.123 102.692 505.979 102.654 505.854 102.579C505.728 102.505 505.625 102.399 505.555 102.271C480.709 56.9126 440.334 24.1899 394.792 12.4886C394.583 12.4356 394.404 12.302 394.294 12.1172C394.184 11.9324 394.152 11.7115 394.205 11.5031C394.258 11.2947 394.392 11.1159 394.577 11.0061C394.762 10.8962 394.983 10.8642 395.192 10.9172C418.491 16.9056 440.15 27.9914 459.58 43.8559C478.604 59.4559 494.538 78.8196 506.983 101.493C507.05 101.616 507.085 101.755 507.082 101.895C507.08 102.036 507.041 102.173 506.97 102.294C506.898 102.415 506.797 102.515 506.675 102.585C506.553 102.654 506.415 102.691 506.274 102.692H506.269Z" fill="black"/>
<path d="M488.17 93.4746C488.034 93.4754 487.9 93.4416 487.781 93.3764C487.662 93.3112 487.561 93.2168 487.488 93.102C457.616 46.8744 411.565 19.2491 361.143 17.3052C361.036 17.3013 360.931 17.2765 360.834 17.2322C360.737 17.1878 360.65 17.1249 360.578 17.0469C360.505 16.969 360.448 16.8775 360.411 16.7777C360.374 16.678 360.357 16.5719 360.361 16.4655C360.365 16.3591 360.39 16.2546 360.434 16.1578C360.478 16.061 360.542 15.9739 360.62 15.9015C360.698 15.829 360.789 15.7726 360.889 15.7355C360.989 15.6984 361.096 15.6813 361.202 15.6852C412.166 17.6454 458.687 45.5407 488.852 92.2218C488.93 92.3441 488.975 92.4853 488.98 92.6305C488.985 92.7756 488.951 92.9195 488.881 93.0471C488.812 93.1746 488.709 93.2811 488.584 93.3554C488.458 93.4296 488.316 93.4689 488.17 93.4692V93.4746Z" fill="black"/>
<path d="M500.019 113.994C499.927 113.994 499.835 113.977 499.749 113.945L493.353 111.704C493.212 111.658 493.087 111.573 492.991 111.46C492.896 111.346 492.834 111.208 492.812 111.062C492.791 110.916 492.81 110.768 492.866 110.632C492.922 110.496 493.014 110.378 493.131 110.29L498.666 106.202C498.777 106.12 498.908 106.067 499.044 106.049C499.181 106.031 499.321 106.049 499.449 106.1C499.578 106.15 499.691 106.233 499.778 106.34C499.866 106.447 499.924 106.574 499.949 106.709C500.49 109.863 500.814 113.076 500.82 113.108C500.83 113.22 500.817 113.333 500.782 113.44C500.746 113.547 500.688 113.645 500.613 113.728C500.537 113.812 500.444 113.878 500.341 113.924C500.238 113.97 500.127 113.994 500.014 113.994H500.019ZM495.333 110.684L499.078 111.996C498.969 111.067 498.802 109.723 498.574 108.292L495.333 110.684Z" fill="black"/>
<path d="M254.239 436.761C253.683 436.761 253.133 436.659 252.615 436.458C252.056 436.24 251.546 435.912 251.115 435.495C250.684 435.078 250.341 434.579 250.105 434.028C249.625 432.925 249.597 431.679 250.027 430.556C250.457 429.432 251.31 428.522 252.404 428.018C252.941 427.778 253.52 427.646 254.108 427.631C254.696 427.616 255.281 427.719 255.829 427.932C256.389 428.149 256.9 428.476 257.331 428.893C257.763 429.31 258.105 429.81 258.34 430.362C258.819 431.462 258.848 432.704 258.421 433.825C257.995 434.946 257.146 435.856 256.057 436.361C255.486 436.623 254.866 436.759 254.239 436.761ZM254.239 429.25C253.841 429.249 253.448 429.333 253.086 429.498C252.38 429.825 251.83 430.415 251.554 431.142C251.278 431.868 251.298 432.674 251.609 433.386C251.761 433.741 251.983 434.062 252.262 434.33C252.541 434.598 252.871 434.808 253.232 434.946C253.578 435.081 253.948 435.146 254.32 435.137C254.691 435.127 255.057 435.044 255.396 434.892C256.103 434.565 256.652 433.975 256.928 433.249C257.204 432.522 257.185 431.717 256.874 431.004C256.658 430.486 256.293 430.042 255.825 429.73C255.357 429.417 254.807 429.25 254.244 429.25H254.239Z" fill="black"/>
<path d="M231.773 419.212C231.576 419.211 231.386 419.139 231.238 419.011C231.09 418.882 230.994 418.704 230.966 418.51L230.425 414.368C230.411 414.263 230.418 414.155 230.445 414.053C230.472 413.95 230.52 413.853 230.585 413.769C230.65 413.685 230.731 413.614 230.823 413.561C230.916 413.508 231.018 413.474 231.123 413.461C231.337 413.433 231.553 413.491 231.724 413.621C231.895 413.752 232.008 413.944 232.038 414.157L232.579 418.299C232.605 418.512 232.546 418.727 232.414 418.897C232.282 419.067 232.089 419.178 231.875 419.206L231.773 419.212Z" fill="black"/>
<path d="M233.039 428.861C232.843 428.86 232.654 428.789 232.507 428.659C232.36 428.53 232.264 428.353 232.238 428.159L231.697 424.017C231.669 423.802 231.728 423.585 231.86 423.414C231.993 423.242 232.188 423.13 232.403 423.102C232.619 423.074 232.836 423.133 233.008 423.265C233.18 423.397 233.292 423.592 233.32 423.807L233.862 427.948C233.889 428.161 233.831 428.376 233.7 428.546C233.57 428.716 233.377 428.827 233.164 428.855L233.039 428.861Z" fill="black"/>
<path d="M225.226 422.862C225.011 422.876 224.799 422.805 224.636 422.663C224.474 422.521 224.375 422.321 224.36 422.106C224.346 421.891 224.418 421.679 224.56 421.517C224.702 421.355 224.902 421.256 225.118 421.242L229.268 420.702C229.374 420.688 229.483 420.695 229.586 420.723C229.69 420.751 229.787 420.799 229.873 420.865C229.958 420.93 230.029 421.012 230.083 421.105C230.136 421.198 230.171 421.3 230.185 421.407C230.199 421.513 230.191 421.621 230.163 421.725C230.135 421.828 230.087 421.925 230.022 422.01C229.956 422.095 229.874 422.166 229.781 422.22C229.688 422.273 229.585 422.308 229.479 422.322L225.329 422.862H225.226Z" fill="black"/>
<path d="M234.895 421.604C234.68 421.618 234.467 421.546 234.305 421.405C234.143 421.263 234.043 421.062 234.029 420.848C234.015 420.633 234.087 420.421 234.229 420.259C234.371 420.097 234.571 419.998 234.787 419.984L238.937 419.444C239.043 419.43 239.152 419.437 239.255 419.465C239.359 419.493 239.456 419.541 239.541 419.606C239.627 419.672 239.698 419.753 239.752 419.846C239.805 419.939 239.84 420.042 239.854 420.148C239.868 420.255 239.86 420.363 239.832 420.466C239.804 420.57 239.756 420.667 239.691 420.752C239.625 420.837 239.543 420.908 239.45 420.962C239.357 421.015 239.254 421.05 239.148 421.064L234.998 421.604H234.895Z" fill="black"/>
<path d="M405.019 371.612C397.688 365.624 389.999 360.068 382.121 354.754C366.132 343.955 349.278 334.327 332.25 324.991C323.29 320.077 313.989 315.627 304.802 311.059C295.615 306.491 286.303 301.88 277.04 297.344C268.574 293.186 260.111 289.014 251.652 284.827C232.439 220.03 211.575 146.538 215.72 146.538L530.705 137.661C538.117 137.661 543.095 143.682 541.791 151.085L503.624 368.286C502.32 375.689 495.232 381.71 487.819 381.71H417.707C413.59 378.233 409.207 375.025 405.019 371.612Z" fill="#5479F7"/>
<path d="M206.728 138.422H524.175C531.208 138.422 535.867 144.092 534.639 151.085L496.466 368.286C495.238 375.306 488.561 380.949 481.554 380.949H164.108C157.101 380.949 152.421 375.279 153.649 368.286L191.821 151.085C193.05 144.092 199.726 138.422 206.728 138.422Z" fill="white"/>
<path d="M520.355 233.162H520.215C520.003 233.125 519.815 233.006 519.691 232.831C519.568 232.656 519.518 232.439 519.554 232.228L533.839 150.961C534.38 147.78 533.676 144.81 531.815 142.602C530.87 141.513 529.695 140.647 528.373 140.067C527.052 139.487 525.618 139.208 524.175 139.249H374.964C374.749 139.249 374.542 139.163 374.39 139.011C374.238 138.86 374.152 138.654 374.152 138.439C374.152 138.224 374.238 138.018 374.39 137.866C374.542 137.714 374.749 137.629 374.964 137.629H524.175C525.853 137.582 527.521 137.907 529.058 138.583C530.594 139.258 531.961 140.266 533.06 141.533C535.224 144.114 536.079 147.554 535.435 151.215L521.156 232.481C521.124 232.671 521.026 232.843 520.88 232.967C520.733 233.092 520.548 233.161 520.355 233.162Z" fill="black"/>
<path d="M153.806 366.99H153.66C153.448 366.952 153.26 366.832 153.137 366.656C153.015 366.479 152.967 366.262 153.005 366.051L160.888 321.443C160.901 321.334 160.937 321.228 160.992 321.133C161.048 321.038 161.122 320.955 161.21 320.889C161.299 320.824 161.4 320.777 161.508 320.751C161.615 320.726 161.726 320.723 161.835 320.742C161.944 320.761 162.047 320.802 162.139 320.862C162.232 320.923 162.311 321.001 162.371 321.093C162.432 321.185 162.474 321.289 162.493 321.397C162.512 321.505 162.51 321.617 162.484 321.724L154.601 366.331C154.566 366.516 154.467 366.683 154.322 366.803C154.177 366.924 153.994 366.99 153.806 366.99Z" fill="black"/>
<path d="M105.574 381.078H482.988C485.452 381.078 487.815 382.055 489.557 383.794C491.299 385.533 492.278 387.891 492.278 390.35C492.278 392.809 491.299 395.167 489.557 396.906C487.815 398.644 485.452 399.621 482.988 399.621H105.574C103.11 399.621 100.747 398.644 99.0052 396.906C97.263 395.167 96.2842 392.809 96.2842 390.35C96.2842 387.891 97.263 385.533 99.0052 383.794C100.747 382.055 103.11 381.078 105.574 381.078Z" fill="#5479F7"/>
<path d="M214.557 146.798H514.559C521.182 146.798 525.608 152.073 524.45 158.585L488.382 360.764C487.219 367.276 480.91 372.552 474.314 372.552H174.274C167.651 372.552 163.225 367.276 164.389 360.764L200.462 158.564C201.625 152.073 207.934 146.798 214.557 146.798Z" fill="#CADDFF"/>
<path d="M522.887 167.365L524.456 158.601C525.614 152.095 521.209 146.835 514.565 146.835H214.557C207.934 146.835 201.625 152.095 200.462 158.601L198.898 167.365H522.887Z" fill="#99B9FF"/>
<path d="M480.87 161.785C483.63 160.644 484.941 157.485 483.798 154.73C482.654 151.975 479.489 150.666 476.728 151.807C473.968 152.949 472.657 156.107 473.8 158.863C474.944 161.618 478.109 162.926 480.87 161.785Z" fill="#CADDFF"/>
<path d="M499.015 158.34C499.702 155.438 497.9 152.53 494.992 151.845C492.084 151.16 489.17 152.957 488.483 155.86C487.797 158.762 489.598 161.67 492.506 162.355C495.415 163.04 498.329 161.243 499.015 158.34Z" fill="#CADDFF"/>
<path d="M508.413 162.516C511.401 162.516 513.823 160.099 513.823 157.117C513.823 154.134 511.401 151.717 508.413 151.717C505.424 151.717 503.002 154.134 503.002 157.117C503.002 160.099 505.424 162.516 508.413 162.516Z" fill="#CADDFF"/>
<path d="M436.465 273.385L436.828 267.704C436.874 266.976 436.77 266.246 436.522 265.56C436.274 264.874 435.888 264.245 435.388 263.714C434.888 263.182 434.283 262.758 433.613 262.468C432.942 262.179 432.219 262.029 431.488 262.029H393.483C392.123 262.028 390.814 262.543 389.822 263.471C388.83 264.399 388.229 265.67 388.142 267.024L383.522 347.335C383.475 348.063 383.579 348.794 383.826 349.481C384.073 350.168 384.459 350.797 384.959 351.329C385.46 351.861 386.064 352.286 386.736 352.576C387.407 352.866 388.131 353.016 388.862 353.016L474.519 354.824C475.88 354.826 477.19 354.309 478.182 353.38C479.174 352.451 479.774 351.179 479.859 349.824L483.739 279.087C483.785 278.358 483.682 277.628 483.435 276.941C483.187 276.254 482.802 275.625 482.301 275.093C481.801 274.56 481.196 274.136 480.525 273.846C479.854 273.556 479.13 273.406 478.398 273.406L436.465 273.385Z" fill="#5479F7"/>
<path d="M467.81 349.651L472.426 291.544L464.071 282.505H402.324C400.811 282.502 399.353 283.074 398.248 284.105C397.142 285.136 396.472 286.549 396.373 288.056L392.044 349.651H467.81Z" fill="white"/>
<path d="M468.568 350.461H391.194L395.523 288.002C395.648 286.292 396.417 284.691 397.674 283.522C398.931 282.353 400.584 281.7 402.303 281.695H464.428L473.264 291.258L468.568 350.461ZM392.91 348.841H467.058L471.587 291.836L463.698 283.315H402.324C401.016 283.318 399.757 283.815 398.8 284.705C397.843 285.595 397.258 286.813 397.162 288.115L392.91 348.841Z" fill="black"/>
<path d="M472.425 292.354L462.994 292.073C462.883 292.071 462.774 292.046 462.674 291.999C462.573 291.953 462.484 291.886 462.41 291.804C462.336 291.721 462.281 291.624 462.246 291.519C462.212 291.414 462.199 291.303 462.21 291.193L462.913 283.045C462.922 282.939 462.952 282.835 463.002 282.74C463.051 282.646 463.119 282.561 463.2 282.493C463.282 282.424 463.377 282.372 463.479 282.34C463.581 282.308 463.688 282.296 463.795 282.305C463.902 282.314 464.005 282.344 464.1 282.394C464.195 282.443 464.279 282.51 464.348 282.592C464.417 282.674 464.469 282.768 464.501 282.87C464.534 282.972 464.545 283.079 464.536 283.185L463.909 290.48L472.479 290.734C472.694 290.734 472.901 290.82 473.053 290.971C473.205 291.123 473.291 291.329 473.291 291.544C473.291 291.759 473.205 291.965 473.053 292.117C472.901 292.269 472.694 292.354 472.479 292.354H472.425Z" fill="black"/>
<path d="M455.382 303.327H407.259C407.044 303.327 406.837 303.241 406.685 303.089C406.533 302.937 406.447 302.731 406.447 302.517C406.447 302.302 406.533 302.096 406.685 301.944C406.837 301.792 407.044 301.707 407.259 301.707H455.382C455.597 301.707 455.803 301.792 455.956 301.944C456.108 302.096 456.193 302.302 456.193 302.517C456.193 302.731 456.108 302.937 455.956 303.089C455.803 303.241 455.597 303.327 455.382 303.327Z" fill="#99B9FF"/>
<path d="M455.831 297.544H407.676C407.461 297.544 407.254 297.458 407.102 297.306C406.95 297.154 406.864 296.948 406.864 296.734C406.864 296.519 406.95 296.313 407.102 296.161C407.254 296.009 407.461 295.924 407.676 295.924H455.831C456.046 295.924 456.253 296.009 456.405 296.161C456.557 296.313 456.643 296.519 456.643 296.734C456.643 296.948 456.557 297.154 456.405 297.306C456.253 297.458 456.046 297.544 455.831 297.544Z" fill="#99B9FF"/>
<path d="M456.718 291.766H433.993C433.778 291.766 433.572 291.68 433.419 291.528C433.267 291.377 433.182 291.171 433.182 290.956C433.182 290.741 433.267 290.535 433.419 290.383C433.572 290.231 433.778 290.146 433.993 290.146H456.718C456.934 290.146 457.14 290.231 457.292 290.383C457.444 290.535 457.53 290.741 457.53 290.956C457.53 291.171 457.444 291.377 457.292 291.528C457.14 291.68 456.934 291.766 456.718 291.766Z" fill="#99B9FF"/>
<path d="M421.966 291.766H408.596C408.381 291.766 408.174 291.68 408.022 291.528C407.87 291.377 407.784 291.171 407.784 290.956C407.784 290.741 407.87 290.535 408.022 290.383C408.174 290.231 408.381 290.146 408.596 290.146H421.966C422.181 290.146 422.387 290.231 422.54 290.383C422.692 290.535 422.777 290.741 422.777 290.956C422.777 291.171 422.692 291.377 422.54 291.528C422.387 291.68 422.181 291.766 421.966 291.766Z" fill="#99B9FF"/>
<path d="M474.33 355.051H388.57C385.913 355.051 383.657 353.518 383.273 351.444L376.455 314.537C375.985 311.993 378.49 309.715 381.753 309.715H467.512C470.169 309.715 472.425 311.248 472.804 313.322L479.627 350.235C480.092 352.773 477.593 355.051 474.33 355.051Z" fill="#5479F7"/>
<path d="M474.33 355.861H413.773C413.558 355.861 413.351 355.776 413.199 355.624C413.047 355.472 412.961 355.266 412.961 355.051C412.961 354.836 413.047 354.63 413.199 354.479C413.351 354.327 413.558 354.241 413.773 354.241H474.33C475.051 354.264 475.768 354.131 476.433 353.851C477.098 353.572 477.695 353.152 478.182 352.621C478.452 352.318 478.65 351.959 478.761 351.569C478.873 351.179 478.895 350.769 478.826 350.37L472.008 313.457C471.7 311.777 469.763 310.514 467.512 310.514H381.752C381.031 310.491 380.314 310.624 379.649 310.903C378.984 311.183 378.387 311.603 377.9 312.134C377.63 312.437 377.432 312.796 377.321 313.186C377.209 313.576 377.187 313.986 377.256 314.385L380.448 331.665C380.481 331.873 380.431 332.087 380.308 332.259C380.186 332.431 380.001 332.549 379.793 332.587C379.584 332.625 379.37 332.58 379.194 332.462C379.018 332.345 378.896 332.163 378.852 331.956L375.66 314.65C375.548 314.017 375.578 313.368 375.75 312.748C375.921 312.129 376.229 311.556 376.65 311.07C377.291 310.357 378.079 309.792 378.959 309.412C379.84 309.033 380.793 308.849 381.752 308.872H467.512C470.585 308.872 473.145 310.67 473.605 313.143L480.422 350.051C480.534 350.685 480.503 351.336 480.331 351.956C480.159 352.577 479.85 353.151 479.427 353.636C478.789 354.353 478.003 354.923 477.123 355.307C476.243 355.691 475.29 355.88 474.33 355.861Z" fill="black"/>
<path d="M386.524 62.9228V62.8256C386.541 62.6465 386.52 62.466 386.463 62.2953C386.406 62.1246 386.315 61.9675 386.195 61.8336C386.074 61.6998 385.927 61.5923 385.763 61.5177C385.6 61.443 385.422 61.403 385.242 61.4H213.37C212.991 61.4158 212.63 61.5694 212.356 61.832C212.082 62.0945 211.914 62.4478 211.882 62.8256L194.682 292.03C194.666 292.208 194.687 292.386 194.745 292.554C194.802 292.723 194.894 292.877 195.015 293.008C195.136 293.138 195.283 293.242 195.446 293.313C195.61 293.384 195.786 293.42 195.964 293.418H367.841C368.215 293.416 368.575 293.275 368.851 293.022C369.127 292.77 369.299 292.424 369.334 292.052L385.978 70.2557L386.524 62.9228Z" fill="#5479F7"/>
<path d="M364.216 293.748H192.339C192.161 293.751 191.984 293.716 191.82 293.646C191.656 293.577 191.509 293.473 191.388 293.343C191.267 293.212 191.175 293.058 191.118 292.889C191.06 292.721 191.04 292.542 191.056 292.365L208.252 62.507C208.285 62.1339 208.455 61.7863 208.73 61.5311C209.005 61.2759 209.364 61.1311 209.74 61.1246H381.622C381.799 61.1223 381.976 61.1574 382.139 61.2275C382.302 61.2976 382.449 61.4012 382.569 61.5316C382.69 61.662 382.781 61.8162 382.838 61.9843C382.895 62.1523 382.915 62.3304 382.899 62.507L365.703 292.365C365.67 292.738 365.5 293.086 365.225 293.341C364.95 293.596 364.591 293.741 364.216 293.748Z" fill="white"/>
<path d="M364.216 294.557H192.339C192.05 294.559 191.762 294.501 191.496 294.386C191.23 294.271 190.991 294.101 190.794 293.889C190.597 293.677 190.447 293.426 190.352 293.152C190.258 292.879 190.221 292.589 190.245 292.3L207.446 62.4475C207.484 61.8648 207.742 61.3182 208.168 60.9175C208.593 60.5168 209.155 60.2918 209.74 60.2876H381.622C381.912 60.2849 382.2 60.3429 382.466 60.4577C382.732 60.5725 382.971 60.7417 383.168 60.9543C383.365 61.1669 383.515 61.4182 383.608 61.6921C383.702 61.966 383.737 62.2564 383.711 62.5447L366.516 292.424C366.468 293.002 366.206 293.542 365.781 293.936C365.355 294.331 364.797 294.553 364.216 294.557ZM209.74 61.9345C209.569 61.9403 209.406 62.0083 209.282 62.1256C209.157 62.2429 209.08 62.4015 209.064 62.5717L191.863 292.424C191.857 292.491 191.865 292.557 191.885 292.62C191.906 292.683 191.939 292.742 191.982 292.792C192.029 292.839 192.084 292.877 192.146 292.902C192.207 292.927 192.273 292.939 192.339 292.937H364.216C364.388 292.933 364.551 292.865 364.676 292.748C364.801 292.63 364.878 292.471 364.893 292.3L382.093 62.4475C382.099 62.3814 382.092 62.3148 382.071 62.2517C382.051 62.1886 382.018 62.1303 381.974 62.0803C381.929 62.0331 381.874 61.9959 381.814 61.9708C381.753 61.9457 381.688 61.9333 381.622 61.9345H209.74Z" fill="black"/>
<path d="M145.83 251.084L162.808 23.8552C162.935 22.3654 163.607 20.9745 164.698 19.9491C165.788 18.9237 167.219 18.3361 168.717 18.2988L313.767 17.6455C314.475 17.6337 315.178 17.7714 315.828 18.0497C316.479 18.328 317.064 18.7405 317.544 19.2601C318.023 19.7797 318.388 20.3947 318.612 21.0647C318.837 21.7348 318.917 22.4447 318.848 23.1479L301.869 250.382C301.743 251.87 301.071 253.26 299.981 254.284C298.892 255.308 297.462 255.895 295.966 255.933L150.916 256.586C150.207 256.6 149.504 256.463 148.852 256.185C148.2 255.908 147.614 255.495 147.134 254.975C146.653 254.456 146.288 253.84 146.064 253.169C145.839 252.498 145.759 251.788 145.83 251.084Z" fill="#99B9FF"/>
<path d="M134.483 242.352L150.071 33.7907C150.198 32.3009 150.87 30.91 151.961 29.8846C153.051 28.8592 154.482 28.2716 155.98 28.2343L301.03 27.5972C301.739 27.5862 302.441 27.7246 303.092 28.0035C303.743 28.2824 304.327 28.6954 304.807 29.2154C305.287 29.7354 305.651 30.3508 305.875 31.0211C306.1 31.6914 306.181 32.4015 306.111 33.1049L290.523 241.65C290.396 243.142 289.722 244.534 288.63 245.56C287.537 246.585 286.103 247.172 284.603 247.207L139.553 247.86C138.846 247.869 138.144 247.73 137.495 247.45C136.845 247.171 136.262 246.757 135.784 246.238C135.305 245.718 134.942 245.103 134.718 244.433C134.494 243.764 134.414 243.055 134.483 242.352Z" fill="white"/>
<path d="M128.407 241.429L143.995 32.8674C144.117 31.3797 144.784 29.9892 145.869 28.962C146.955 27.9348 148.381 27.3431 149.876 27.3002L294.927 26.6468C295.635 26.6358 296.337 26.7743 296.988 27.0532C297.639 27.3321 298.223 27.745 298.703 28.2651C299.183 28.7851 299.547 29.4004 299.772 30.0708C299.997 30.7411 300.077 31.4512 300.007 32.1546L284.425 240.716C284.303 242.205 283.635 243.597 282.548 244.625C281.462 245.654 280.034 246.246 278.538 246.289L133.487 246.942C132.779 246.953 132.076 246.815 131.424 246.535C130.773 246.256 130.188 245.843 129.709 245.322C129.229 244.801 128.865 244.185 128.64 243.514C128.416 242.843 128.336 242.133 128.407 241.429Z" fill="#CADDFF"/>
<path d="M372.733 47.5764V47.4738C372.749 47.2945 372.728 47.1137 372.672 46.9427C372.615 46.7717 372.524 46.6142 372.403 46.48C372.283 46.3458 372.136 46.2377 371.972 46.1625C371.808 46.0873 371.631 46.0466 371.45 46.0428H199.579C199.199 46.0588 198.837 46.2132 198.563 46.4768C198.289 46.7404 198.121 47.0951 198.091 47.4738L180.89 277.327C180.874 277.504 180.895 277.683 180.952 277.852C181.009 278.021 181.1 278.176 181.221 278.308C181.342 278.439 181.489 278.543 181.653 278.614C181.817 278.685 181.994 278.721 182.173 278.72H354.049C354.424 278.718 354.784 278.578 355.059 278.325C355.334 278.072 355.505 277.726 355.537 277.354L372.181 54.8823L372.733 47.5764Z" fill="#5479F7"/>
<path d="M350.424 279.049H178.553C178.374 279.052 178.198 279.018 178.034 278.948C177.87 278.878 177.723 278.775 177.602 278.644C177.481 278.514 177.389 278.359 177.331 278.191C177.274 278.022 177.253 277.844 177.27 277.667L194.46 47.814C194.493 47.441 194.664 47.0934 194.939 46.8382C195.213 46.583 195.573 46.4382 195.948 46.4317H367.825C368.003 46.4278 368.18 46.4617 368.345 46.5312C368.509 46.6007 368.657 46.7042 368.778 46.8348C368.899 46.9655 368.991 47.1203 369.048 47.2891C369.105 47.4579 369.125 47.6369 369.107 47.814L351.912 277.667C351.879 278.04 351.708 278.388 351.433 278.643C351.159 278.898 350.799 279.043 350.424 279.049Z" fill="white"/>
<path d="M350.37 279.859H178.596C178.3 279.862 178.006 279.802 177.734 279.685C177.462 279.568 177.218 279.395 177.017 279.178C176.815 278.961 176.662 278.704 176.566 278.425C176.47 278.145 176.434 277.848 176.459 277.553L186.128 148.25C186.136 148.144 186.165 148.04 186.214 147.945C186.262 147.85 186.329 147.765 186.41 147.696C186.491 147.626 186.585 147.573 186.687 147.54C186.788 147.507 186.895 147.494 187.002 147.502C187.109 147.51 187.212 147.539 187.308 147.588C187.403 147.636 187.488 147.702 187.558 147.783C187.627 147.864 187.68 147.958 187.713 148.06C187.747 148.161 187.759 148.268 187.751 148.374L178.077 277.672C178.07 277.745 178.078 277.818 178.1 277.888C178.123 277.958 178.159 278.022 178.207 278.077C178.258 278.129 178.318 278.17 178.385 278.198C178.452 278.225 178.524 278.24 178.596 278.239H350.37C350.556 278.235 350.733 278.162 350.869 278.036C351.005 277.91 351.089 277.738 351.106 277.553L362.782 121.5C362.791 121.393 362.82 121.289 362.868 121.194C362.916 121.099 362.983 121.014 363.064 120.945C363.145 120.876 363.239 120.823 363.341 120.79C363.443 120.756 363.55 120.743 363.656 120.752C363.763 120.76 363.867 120.789 363.962 120.837C364.058 120.885 364.142 120.952 364.212 121.033C364.282 121.114 364.334 121.208 364.368 121.309C364.401 121.41 364.414 121.517 364.406 121.624L352.729 277.678C352.682 278.27 352.413 278.823 351.976 279.227C351.539 279.631 350.966 279.857 350.37 279.859Z" fill="black"/>
<path d="M190.386 103.108H190.321C190.107 103.091 189.908 102.99 189.768 102.827C189.628 102.664 189.558 102.453 189.575 102.238L193.649 47.8032C193.7 47.2149 193.97 46.6671 194.406 46.2674C194.841 45.8677 195.411 45.6451 196.003 45.6433H367.776C368.073 45.6391 368.367 45.697 368.639 45.8134C368.912 45.9298 369.156 46.102 369.358 46.3189C369.559 46.5357 369.713 46.7924 369.809 47.0723C369.905 47.3522 369.94 47.649 369.914 47.9436L368.707 64.0728C368.691 64.2876 368.591 64.4873 368.427 64.6281C368.264 64.7689 368.051 64.8391 367.836 64.8233C367.621 64.8076 367.421 64.7071 367.28 64.5441C367.139 64.3811 367.068 64.1688 367.084 63.954L368.291 47.8248C368.297 47.752 368.29 47.6786 368.267 47.609C368.245 47.5394 368.209 47.475 368.161 47.4198C368.109 47.3691 368.049 47.3291 367.982 47.3023C367.915 47.2754 367.843 47.2621 367.771 47.2632H196.003C195.818 47.2676 195.641 47.3391 195.506 47.4644C195.37 47.5897 195.285 47.7601 195.267 47.9436L191.192 102.384C191.172 102.583 191.078 102.768 190.929 102.901C190.78 103.035 190.587 103.109 190.386 103.108Z" fill="black"/>
<path d="M334.923 184.904H208.312C207.834 184.91 207.36 184.817 206.921 184.628C206.481 184.44 206.087 184.162 205.762 183.812C205.438 183.461 205.191 183.047 205.037 182.595C204.883 182.143 204.827 181.664 204.871 181.189V180.913C204.959 179.91 205.417 178.976 206.155 178.289C206.894 177.603 207.861 177.215 208.869 177.198H335.48C335.958 177.191 336.433 177.284 336.873 177.472C337.312 177.66 337.708 177.938 338.032 178.289C338.357 178.639 338.604 179.054 338.757 179.507C338.91 179.959 338.966 180.438 338.921 180.913V181.189C338.834 182.192 338.377 183.128 337.638 183.814C336.9 184.501 335.932 184.889 334.923 184.904Z" fill="#CADDFF"/>
<path d="M331.86 202.01H205.249C204.77 202.017 204.295 201.923 203.856 201.734C203.416 201.545 203.021 201.266 202.698 200.914C202.374 200.562 202.128 200.146 201.976 199.693C201.825 199.24 201.771 198.76 201.818 198.285V198.004C201.905 197.002 202.362 196.068 203.1 195.382C203.837 194.697 204.804 194.309 205.812 194.294H332.422C332.9 194.286 333.375 194.379 333.815 194.566C334.255 194.753 334.65 195.031 334.976 195.381C335.301 195.731 335.548 196.145 335.702 196.597C335.856 197.049 335.913 197.529 335.869 198.004V198.285C335.783 199.291 335.325 200.23 334.584 200.919C333.843 201.608 332.872 201.997 331.86 202.01Z" fill="#CADDFF"/>
<path d="M295.116 218.21H204.037C203.559 218.217 203.085 218.124 202.645 217.936C202.205 217.748 201.81 217.47 201.485 217.119C201.161 216.769 200.914 216.354 200.76 215.902C200.607 215.449 200.551 214.97 200.596 214.495V214.219C200.683 213.216 201.14 212.28 201.879 211.594C202.618 210.908 203.585 210.519 204.595 210.504H295.695C296.173 210.497 296.648 210.59 297.087 210.778C297.527 210.966 297.922 211.244 298.247 211.595C298.572 211.945 298.819 212.36 298.972 212.813C299.125 213.265 299.181 213.744 299.136 214.219V214.495C299.049 215.502 298.588 216.441 297.845 217.127C297.102 217.814 296.129 218.2 295.116 218.21Z" fill="#CADDFF"/>
<path d="M219.955 166.253H209.724C209.246 166.26 208.773 166.166 208.334 165.978C207.895 165.79 207.5 165.512 207.176 165.163C206.851 164.813 206.604 164.399 206.45 163.948C206.296 163.497 206.239 163.018 206.283 162.543V162.263C206.371 161.26 206.829 160.326 207.567 159.641C208.306 158.955 209.273 158.568 210.281 158.553H220.507C220.985 158.545 221.46 158.637 221.899 158.825C222.339 159.012 222.734 159.29 223.059 159.64C223.384 159.99 223.631 160.405 223.784 160.857C223.938 161.308 223.994 161.788 223.949 162.263V162.543C223.858 163.544 223.4 164.476 222.663 165.161C221.926 165.846 220.962 166.235 219.955 166.253Z" fill="#CADDFF"/>
<path d="M334.614 166.253H238.974C238.496 166.261 238.021 166.169 237.582 165.981C237.142 165.794 236.747 165.516 236.422 165.166C236.097 164.816 235.85 164.402 235.697 163.95C235.544 163.498 235.488 163.018 235.533 162.543V162.263C235.623 161.261 236.082 160.328 236.82 159.643C237.558 158.959 238.524 158.57 239.531 158.553H335.193C335.67 158.546 336.144 158.639 336.584 158.826C337.023 159.014 337.418 159.292 337.742 159.642C338.067 159.992 338.314 160.406 338.468 160.857C338.621 161.309 338.678 161.788 338.634 162.263V162.543C338.545 163.55 338.084 164.487 337.341 165.173C336.598 165.858 335.626 166.244 334.614 166.253Z" fill="#CADDFF"/>
<path d="M331.135 69.91H235.468C234.99 69.9174 234.515 69.8242 234.075 69.6363C233.636 69.4484 233.241 69.1701 232.916 68.8195C232.591 68.469 232.344 68.0541 232.191 67.6018C232.038 67.1496 231.982 66.6702 232.027 66.195V65.9196C232.116 64.9169 232.574 63.9827 233.312 63.2969C234.05 62.611 235.017 62.2219 236.025 62.2045H331.676C332.154 62.1971 332.629 62.2904 333.068 62.4783C333.508 62.6662 333.903 62.9445 334.228 63.295C334.553 63.6456 334.8 64.0605 334.953 64.5127C335.106 64.9649 335.162 65.4443 335.117 65.9196V66.195C335.03 67.1958 334.576 68.1291 333.84 68.8151C333.105 69.501 332.141 69.8911 331.135 69.91Z" fill="#CADDFF"/>
<path d="M312.684 147.608H211.12C210.642 147.614 210.168 147.52 209.728 147.332C209.289 147.144 208.894 146.866 208.57 146.515C208.245 146.165 207.998 145.75 207.845 145.298C207.691 144.847 207.635 144.368 207.679 143.892V143.617C207.766 142.614 208.223 141.678 208.961 140.992C209.7 140.305 210.668 139.917 211.677 139.902H313.279C313.758 139.895 314.232 139.989 314.671 140.178C315.11 140.366 315.505 140.644 315.83 140.994C316.154 141.345 316.401 141.759 316.555 142.211C316.708 142.663 316.765 143.142 316.721 143.617V143.892C316.633 144.902 316.171 145.843 315.424 146.531C314.677 147.218 313.7 147.602 312.684 147.608Z" fill="#CADDFF"/>
<path d="M339.126 128.957H212.515C212.038 128.964 211.564 128.871 211.124 128.683C210.685 128.496 210.29 128.218 209.965 127.868C209.641 127.518 209.394 127.104 209.24 126.652C209.087 126.201 209.03 125.722 209.074 125.247V124.966C209.162 123.964 209.62 123.03 210.359 122.344C211.097 121.659 212.064 121.272 213.073 121.257H339.683C340.161 121.25 340.634 121.344 341.073 121.532C341.512 121.72 341.907 121.997 342.231 122.347C342.556 122.697 342.803 123.111 342.957 123.562C343.111 124.013 343.168 124.492 343.125 124.966V125.247C343.036 126.25 342.579 127.184 341.84 127.869C341.101 128.554 340.134 128.942 339.126 128.957Z" fill="#CADDFF"/>
<path d="M341.231 91.8548H214.62C214.142 91.8622 213.668 91.769 213.228 91.5811C212.788 91.3932 212.393 91.1149 212.068 90.7643C211.744 90.4138 211.497 89.9989 211.343 89.5466C211.19 89.0944 211.134 88.615 211.179 88.1398V87.8644C211.266 86.8618 211.722 85.9269 212.46 85.2407C213.198 84.5545 214.164 84.1656 215.172 84.1493H341.783C342.261 84.142 342.736 84.2353 343.176 84.4231C343.616 84.611 344.011 84.8892 344.337 85.2396C344.662 85.59 344.909 86.0049 345.063 86.4571C345.217 86.9093 345.274 87.3888 345.23 87.8644V88.1398C345.141 89.1428 344.684 90.0777 343.945 90.7638C343.207 91.45 342.24 91.8386 341.231 91.8548Z" fill="#CADDFF"/>
<path d="M304.85 110.846H250.342C249.864 110.853 249.389 110.76 248.95 110.572C248.51 110.384 248.115 110.106 247.79 109.755C247.465 109.405 247.218 108.99 247.065 108.538C246.912 108.085 246.856 107.606 246.901 107.131V106.855C246.988 105.852 247.445 104.916 248.184 104.23C248.922 103.544 249.89 103.155 250.899 103.14H305.423C305.902 103.133 306.376 103.226 306.816 103.414C307.256 103.602 307.652 103.88 307.977 104.231C308.302 104.581 308.549 104.996 308.703 105.448C308.857 105.9 308.914 106.38 308.87 106.855V107.131C308.781 108.137 308.321 109.075 307.578 109.762C306.834 110.449 305.862 110.835 304.85 110.846Z" fill="#CADDFF"/>
<path d="M238.022 261.635H201.77C201.342 261.641 200.917 261.558 200.523 261.389C200.129 261.221 199.776 260.972 199.485 260.658C199.194 260.344 198.972 259.973 198.835 259.568C198.697 259.163 198.646 258.734 198.686 258.309V258.06C198.764 257.161 199.173 256.323 199.835 255.709C200.497 255.094 201.364 254.747 202.268 254.734H238.52C238.948 254.728 239.373 254.811 239.766 254.98C240.16 255.148 240.514 255.397 240.805 255.711C241.096 256.024 241.317 256.396 241.455 256.801C241.593 257.205 241.643 257.635 241.604 258.06V258.309C241.525 259.207 241.115 260.044 240.453 260.659C239.792 261.273 238.925 261.621 238.022 261.635Z" fill="#CADDFF"/>
<path d="M239.872 245.517H202.987C202.558 245.522 202.133 245.438 201.74 245.269C201.346 245.1 200.992 244.85 200.701 244.536C200.41 244.222 200.189 243.85 200.051 243.445C199.914 243.04 199.863 242.611 199.903 242.185V241.937C199.982 241.038 200.391 240.201 201.053 239.586C201.715 238.972 202.581 238.624 203.485 238.61H240.364C240.792 238.604 241.217 238.688 241.611 238.856C242.005 239.024 242.358 239.273 242.649 239.587C242.94 239.901 243.162 240.272 243.299 240.677C243.437 241.082 243.488 241.511 243.448 241.937V242.185C243.369 243.083 242.96 243.92 242.3 244.535C241.64 245.151 240.775 245.5 239.872 245.517Z" fill="#CADDFF"/>
<path d="M309.72 266.673C306.461 266.679 303.246 265.923 300.333 264.464C297.901 263.256 295.745 261.56 294.001 259.481C292.257 257.403 290.962 254.987 290.198 252.385C286.801 241.094 293.488 228.464 305.105 224.241C307.873 223.188 310.829 222.715 313.789 222.852C316.748 222.99 319.647 223.735 322.306 225.04C324.735 226.249 326.89 227.944 328.633 230.02C330.377 232.097 331.673 234.51 332.44 237.109C335.838 248.405 329.15 261.03 317.533 265.258C315.032 266.183 312.388 266.661 309.72 266.673ZM312.913 224.457C310.438 224.465 307.984 224.907 305.662 225.764C294.841 229.7 288.597 241.423 291.751 251.921C292.452 254.312 293.64 256.533 295.242 258.445C296.843 260.356 298.823 261.916 301.058 263.028C303.518 264.236 306.202 264.924 308.941 265.049C311.68 265.174 314.415 264.735 316.976 263.757C327.798 259.82 334.041 248.098 330.887 237.6C330.185 235.211 328.996 232.992 327.395 231.082C325.793 229.173 323.814 227.614 321.581 226.504C318.891 225.154 315.923 224.453 312.913 224.457Z" fill="#99B9FF"/>
<path d="M310.142 261.079C307.716 261.089 305.32 260.535 303.146 259.459C301.329 258.559 299.719 257.293 298.415 255.742C297.112 254.192 296.143 252.388 295.571 250.446C293.044 242.039 298.017 232.627 306.663 229.495C308.728 228.709 310.932 228.355 313.14 228.458C315.347 228.56 317.509 229.115 319.492 230.089C321.308 230.99 322.918 232.256 324.222 233.806C325.525 235.357 326.494 237.16 327.067 239.101C329.594 247.509 324.621 256.921 315.975 260.047C314.107 260.731 312.132 261.08 310.142 261.079ZM312.49 230.051C310.696 230.058 308.916 230.378 307.231 230.996C299.386 233.853 294.857 242.336 297.14 249.96C297.65 251.688 298.511 253.293 299.67 254.673C300.83 256.054 302.261 257.181 303.877 257.984C305.658 258.861 307.601 259.361 309.585 259.454C311.569 259.547 313.551 259.23 315.407 258.524C323.252 255.668 327.781 247.185 325.498 239.56C324.988 237.832 324.127 236.227 322.968 234.845C321.809 233.463 320.377 232.335 318.762 231.531C316.816 230.556 314.668 230.049 312.49 230.051Z" fill="#99B9FF"/>
<path d="M340.474 241.92L286.373 261.597L282.163 247.59L336.265 227.913L340.474 241.92Z" fill="white"/>
<path d="M286.373 262.407C286.247 262.408 286.122 262.378 286.01 262.321C285.911 262.271 285.823 262.202 285.751 262.118C285.68 262.033 285.626 261.935 285.594 261.829L281.384 247.822C281.327 247.622 281.348 247.408 281.444 247.224C281.539 247.039 281.702 246.898 281.898 246.829L336.005 227.152C336.11 227.115 336.221 227.1 336.332 227.107C336.442 227.115 336.55 227.145 336.649 227.195C336.748 227.246 336.835 227.316 336.906 227.401C336.977 227.487 337.029 227.585 337.06 227.692L341.27 241.699C341.328 241.897 341.308 242.11 341.215 242.295C341.121 242.479 340.961 242.621 340.767 242.692L286.66 262.369C286.567 262.399 286.47 262.412 286.373 262.407ZM283.159 248.092L286.903 260.512L339.479 241.429L335.735 228.977L283.159 248.092Z" fill="#99B9FF"/>
<path d="M320.856 251.218C320.637 251.217 320.42 251.175 320.217 251.094C319.887 250.966 319.607 250.734 319.422 250.433C319.236 250.131 319.154 249.778 319.189 249.426L319.849 240.613C319.869 240.503 319.847 240.39 319.787 240.296C319.726 240.202 319.633 240.134 319.525 240.106C319.375 240.061 319.215 240.07 319.071 240.131C318.928 240.192 318.811 240.302 318.74 240.44L315.494 245.84C315.299 246.18 314.997 246.446 314.635 246.597C314.272 246.747 313.87 246.774 313.492 246.672C313.134 246.58 312.819 246.37 312.598 246.075C312.377 245.781 312.263 245.42 312.274 245.052C312.274 245.02 312.274 245.009 312.215 245.014C312.189 245.018 312.164 245.027 312.141 245.041C312.119 245.055 312.1 245.073 312.085 245.095L308.698 249.572C308.485 249.859 308.191 250.076 307.853 250.194C307.515 250.313 307.15 250.327 306.804 250.236C306.483 250.151 306.195 249.97 305.98 249.717C305.766 249.464 305.634 249.151 305.603 248.821L304.65 240.279C304.647 240.173 304.606 240.073 304.534 239.995C304.463 239.918 304.366 239.869 304.261 239.857C304.112 239.832 303.96 239.856 303.827 239.927C303.693 239.997 303.587 240.109 303.525 240.246L299.348 248.243C299.299 248.338 299.231 248.421 299.149 248.489C299.068 248.558 298.973 248.609 298.871 248.641C298.77 248.673 298.663 248.684 298.556 248.675C298.45 248.666 298.347 248.635 298.252 248.586C298.158 248.537 298.074 248.469 298.006 248.388C297.937 248.306 297.885 248.212 297.854 248.11C297.822 248.009 297.81 247.902 297.82 247.796C297.829 247.69 297.859 247.587 297.909 247.493L302.08 239.496C302.306 239.052 302.669 238.693 303.115 238.471C303.562 238.249 304.068 238.177 304.558 238.264C305.005 238.342 305.414 238.563 305.722 238.895C306.03 239.227 306.22 239.65 306.263 240.1L307.215 248.643C307.215 248.672 307.237 248.682 307.28 248.675C307.331 248.666 307.375 248.637 307.405 248.594L310.792 244.118C311.013 243.819 311.322 243.596 311.676 243.482C312.031 243.368 312.412 243.367 312.767 243.481C313.098 243.586 313.386 243.794 313.59 244.075C313.793 244.356 313.901 244.694 313.897 245.041C313.897 245.079 313.935 245.09 313.973 245.084C314.001 245.078 314.026 245.066 314.048 245.048C314.069 245.03 314.086 245.007 314.098 244.982L317.344 239.582C317.601 239.127 318.004 238.773 318.489 238.577C318.973 238.381 319.51 238.354 320.011 238.502C320.464 238.643 320.855 238.934 321.12 239.326C321.385 239.719 321.507 240.19 321.467 240.662L320.791 249.528C320.791 249.572 320.791 249.577 320.85 249.582C320.875 249.58 320.899 249.571 320.921 249.558C320.942 249.545 320.961 249.528 320.975 249.507L331.731 236.547C331.797 236.46 331.88 236.387 331.975 236.333C332.07 236.279 332.175 236.245 332.284 236.232C332.393 236.22 332.503 236.229 332.608 236.26C332.713 236.291 332.811 236.343 332.895 236.413C332.979 236.482 333.049 236.568 333.099 236.665C333.149 236.762 333.179 236.868 333.187 236.977C333.195 237.086 333.181 237.196 333.146 237.299C333.11 237.402 333.054 237.497 332.981 237.579L322.224 250.538C322.061 250.745 321.853 250.913 321.616 251.031C321.38 251.149 321.12 251.213 320.856 251.218Z" fill="black"/>
<path d="M119.317 255.592L136.95 19.5785C137.076 18.0914 137.747 16.7027 138.834 15.6777C139.92 14.6527 141.348 14.0633 142.843 14.0222L287.893 13.3688C288.601 13.3578 289.304 13.4962 289.955 13.7751C290.605 14.054 291.19 14.467 291.669 14.987C292.149 15.507 292.513 16.1224 292.738 16.7927C292.963 17.463 293.043 18.1731 292.974 18.8766L275.351 254.891C275.225 256.379 274.554 257.768 273.466 258.793C272.378 259.818 270.949 260.407 269.453 260.447L124.408 261.1C123.699 261.114 122.995 260.977 122.342 260.699C121.69 260.421 121.104 260.008 120.623 259.488C120.142 258.968 119.776 258.351 119.551 257.68C119.326 257.008 119.246 256.297 119.317 255.592Z" fill="#5479F7"/>
<path d="M389.61 183.527C389.566 183.573 389.534 183.629 389.518 183.69C389.502 183.752 389.502 183.816 389.518 183.878C389.539 183.966 389.583 184.048 389.644 184.115C389.706 184.182 389.783 184.232 389.869 184.261C389.932 184.285 390.001 184.291 390.067 184.277C390.133 184.264 390.194 184.232 390.243 184.186L392.082 182.334C397.774 178.915 404.911 177.501 412.719 178.759C430.834 181.68 446.292 199.062 448.792 217.313L434.481 216.455C434.268 216.483 434.063 216.552 433.877 216.66C433.691 216.767 433.529 216.91 433.399 217.081L431.986 218.82L459.787 247.439C460.425 248.092 461.377 248.146 461.854 247.558L482.636 221.676C483.34 220.796 482.501 219.257 481.278 219.187L468.211 218.431C463.093 196.746 444.112 178.03 422.042 174.477C411.539 172.781 401.984 174.79 394.447 179.542C392.809 180.586 391.297 181.814 389.94 183.203L389.61 183.527Z" fill="#5479F7"/>
<path d="M389.788 183.7C389.754 183.734 389.727 183.776 389.71 183.821C389.694 183.867 389.687 183.916 389.69 183.964C389.7 184.08 389.746 184.19 389.823 184.278C389.9 184.366 390.004 184.426 390.118 184.45C390.173 184.462 390.231 184.459 390.285 184.442C390.339 184.425 390.388 184.394 390.426 184.353C396.118 180.94 403.255 179.526 411.063 180.784C429.178 183.7 444.609 201.082 447.136 219.333L433.166 218.523C431.943 218.453 431.504 219.916 432.457 220.888L459.148 248.205C459.786 248.864 460.739 248.918 461.215 248.33L480.958 223.696C481.662 222.816 480.823 221.282 479.6 221.207L466.533 220.451C461.415 198.765 442.439 180.049 420.364 176.496C408.417 174.579 397.687 177.447 389.788 183.7Z" fill="white"/>
<path d="M460.333 249.555C460.004 249.55 459.679 249.48 459.378 249.347C459.077 249.214 458.806 249.023 458.58 248.783L431.884 221.45C431.537 221.116 431.3 220.686 431.203 220.216C431.107 219.745 431.155 219.257 431.343 218.814C431.511 218.464 431.782 218.172 432.12 217.979C432.459 217.786 432.848 217.701 433.236 217.734L446.222 218.485C443.295 200.439 427.993 184.342 410.971 181.604C403.591 180.411 396.644 181.604 390.881 185.071L390.822 185.104C390.581 185.253 390.294 185.309 390.016 185.26C389.719 185.203 389.451 185.048 389.255 184.819C389.058 184.591 388.945 184.303 388.933 184.002C388.924 183.841 388.95 183.68 389.009 183.53C389.068 183.38 389.158 183.245 389.274 183.133L389.339 183.073C397.731 176.437 408.818 173.823 420.559 175.719C442.24 179.212 461.778 197.658 467.243 219.7L479.687 220.424C480.155 220.461 480.604 220.625 480.985 220.898C481.367 221.171 481.666 221.543 481.852 221.973C482.028 222.332 482.101 222.732 482.062 223.13C482.024 223.527 481.876 223.906 481.635 224.225L461.859 248.843C461.687 249.057 461.471 249.232 461.226 249.355C460.98 249.478 460.711 249.546 460.436 249.555H460.333ZM433.09 219.344C433.031 219.335 432.971 219.347 432.919 219.376C432.867 219.405 432.827 219.451 432.803 219.506C432.759 219.653 432.758 219.81 432.801 219.957C432.845 220.105 432.93 220.237 433.047 220.337L459.743 247.655C459.82 247.743 459.915 247.814 460.021 247.862C460.128 247.91 460.243 247.935 460.36 247.935C460.404 247.936 460.448 247.927 460.488 247.91C460.528 247.892 460.564 247.866 460.593 247.833L480.337 223.199C480.384 223.11 480.409 223.011 480.409 222.91C480.409 222.809 480.384 222.71 480.337 222.621C480.272 222.463 480.166 222.324 480.03 222.22C479.894 222.116 479.733 222.049 479.563 222.027L466.496 221.271C466.322 221.261 466.156 221.195 466.022 221.083C465.889 220.971 465.795 220.82 465.755 220.65C460.636 198.959 441.498 180.73 420.245 177.306C410.831 175.789 401.849 177.274 394.496 181.496C399.837 179.526 405.606 179.006 411.215 179.99C429.205 182.89 445.345 200.126 447.964 219.23C447.981 219.35 447.97 219.471 447.934 219.586C447.897 219.701 447.836 219.806 447.753 219.894C447.671 219.981 447.571 220.049 447.459 220.094C447.348 220.138 447.229 220.159 447.109 220.154L433.139 219.344H433.09Z" fill="#5479F7"/>
<path d="M183.71 118.886C177.758 112.455 168.901 111.1 162.246 112.914C153.827 115.209 149.579 122.482 146.587 127.607C141.29 136.673 143.849 139.956 139.689 145.221C132.319 154.546 114.437 148.374 105.736 155.534C84.8185 172.749 96.2189 201.195 114.761 214.619C127.125 223.577 143.941 218.399 148.513 216.989C162.403 212.713 185.415 204.332 187.638 184.326C189.137 170.87 175.378 160.081 182.769 148.871C184.652 146.015 186.21 145.237 187.611 141.668C189.878 135.868 190.392 126.1 183.71 118.886Z" fill="black"/>
<path d="M161.975 120.474C165.14 117.909 163.138 110.354 161.109 106.283C160.352 104.755 156.959 97.9187 152.49 98.1833C147.902 98.4586 143.514 106.143 145.148 112.223C147.171 119.836 158.269 123.476 161.975 120.474Z" fill="black"/>
<path d="M207.912 262.596L198.254 207.097L207.452 201.821C207.452 201.821 196.149 170.573 183.472 167.57C183.012 167.376 182.541 167.192 182.054 167.03C166.812 162.171 153.751 163.305 144.331 165.751C144.331 165.751 135.95 166.863 135.208 167.036C130.496 168.164 118.403 171.707 112.57 187.555C110.866 192.194 108.907 198.603 107.354 203.922C106.509 206.821 106.551 209.906 107.476 212.781C108.401 215.656 110.165 218.19 112.543 220.056L117.775 223.097L129.224 218.415C128.737 228.311 127.324 238.14 125.004 247.774L122.12 259.734C121.767 263.475 122.576 267.234 124.438 270.5C126.299 273.766 129.122 276.381 132.525 277.991L133.017 278.218C138.428 280.588 154.6 280.664 167.981 280.664C180.464 280.664 189.278 278.579 195.105 276.371C200.689 274.26 208.61 268.509 207.912 262.596Z" fill="white"/>
<path d="M167.981 281.474C152.415 281.474 138.006 281.279 132.693 278.957L132.184 278.725C128.632 277.044 125.684 274.313 123.738 270.904C121.793 267.494 120.945 263.571 121.309 259.664C121.305 259.624 121.305 259.585 121.309 259.545L124.192 247.585C126.399 238.415 127.781 229.067 128.321 219.651L118.04 223.847C117.925 223.893 117.801 223.912 117.677 223.903C117.553 223.894 117.433 223.856 117.326 223.793L112.094 220.753C112.06 220.736 112.029 220.715 112.002 220.688C109.504 218.723 107.653 216.056 106.688 213.031C105.724 210.005 105.69 206.761 106.591 203.717C108.637 196.697 110.379 191.168 111.824 187.291C115.974 176.016 123.781 168.931 135.036 166.231C135.793 166.053 143.379 165.049 144.234 164.93C156.651 161.733 169.458 162.176 182.287 166.253C182.726 166.393 183.169 166.561 183.683 166.793C196.62 169.914 207.739 200.272 208.205 201.551C208.271 201.73 208.271 201.926 208.206 202.105C208.14 202.284 208.013 202.434 207.848 202.529L199.109 207.524L208.67 262.461V262.504C209.417 268.838 201.328 274.87 195.343 277.132C187.752 280.01 178.554 281.474 167.981 281.474ZM122.921 259.874C122.599 263.44 123.379 267.019 125.157 270.129C126.936 273.239 129.626 275.73 132.866 277.267C133.028 277.343 133.185 277.418 133.342 277.483C138.785 279.865 156.354 279.865 167.971 279.865C178.343 279.865 187.373 278.439 194.808 275.626C200.137 273.612 207.718 268.12 207.095 262.72L197.454 207.237C197.424 207.073 197.446 206.904 197.517 206.753C197.587 206.603 197.703 206.477 197.849 206.395L206.479 201.47C204.796 197.053 194.494 171.14 183.396 168.386C183.324 168.378 183.253 168.36 183.185 168.332C182.677 168.116 182.249 167.959 181.833 167.824C169.258 163.828 156.722 163.402 144.564 166.555C144.492 166.57 144.42 166.579 144.347 166.582C141.101 167.009 135.934 167.716 135.431 167.835C124.739 170.389 117.315 177.123 113.366 187.863C111.975 191.643 110.173 197.291 108.166 204.176C107.362 206.905 107.393 209.812 108.255 212.524C109.116 215.236 110.77 217.629 113.003 219.398L117.835 222.206L128.916 217.67C129.042 217.619 129.18 217.601 129.315 217.617C129.45 217.633 129.579 217.682 129.691 217.76C129.802 217.839 129.892 217.944 129.952 218.065C130.012 218.187 130.041 218.322 130.036 218.458C129.543 228.405 128.121 238.285 125.789 247.968L122.921 259.874Z" fill="black"/>
<path d="M127.822 258.643C127.69 258.645 127.56 258.613 127.443 258.552C127.257 258.451 127.118 258.282 127.054 258.08C126.991 257.879 127.008 257.661 127.102 257.472C131.61 248.94 140.678 243.076 153.328 240.522C163.852 238.4 174.522 239.015 180.463 240.181C188.812 241.828 197.149 247.201 197.496 247.412C197.585 247.47 197.663 247.544 197.723 247.632C197.784 247.72 197.826 247.818 197.849 247.922C197.871 248.026 197.873 248.134 197.853 248.238C197.834 248.343 197.794 248.443 197.737 248.532C197.679 248.622 197.604 248.699 197.516 248.759C197.428 248.82 197.329 248.862 197.225 248.884C197.121 248.907 197.013 248.908 196.908 248.889C196.803 248.87 196.703 248.83 196.614 248.772C196.533 248.718 188.184 243.373 180.149 241.753C167.461 239.253 138.156 239.987 128.542 258.206C128.473 258.338 128.37 258.448 128.243 258.525C128.116 258.602 127.971 258.643 127.822 258.643Z" fill="black"/>
<path d="M146.306 188.743C146.306 188.743 121.373 202.783 116.233 207.162C111.093 211.541 105.514 214.9 112.786 224.484C118.965 232.633 129.846 225.348 149.038 197.885C149.994 196.621 151.386 195.757 152.945 195.461C154.866 195.029 157.657 193.511 158.945 188.473C158.945 188.473 168.041 189.758 168.841 185.336L155.185 183.176C154.282 183.019 153.355 183.084 152.483 183.366C151.612 183.649 150.823 184.139 150.185 184.796L146.306 188.743Z" fill="white"/>
<path d="M118.495 228.469C116.038 228.469 113.906 227.303 112.164 225.003C104.99 215.542 109.848 211.503 114.545 207.572C114.94 207.243 115.335 206.913 115.73 206.573C120.762 202.253 143.866 189.235 145.835 188.122L149.623 184.234C150.354 183.485 151.258 182.926 152.256 182.606C153.254 182.286 154.315 182.215 155.347 182.398L168.993 184.558C169.1 184.575 169.203 184.612 169.295 184.669C169.387 184.726 169.467 184.8 169.53 184.889C169.592 184.977 169.636 185.077 169.659 185.182C169.682 185.288 169.684 185.397 169.664 185.503C168.869 189.877 161.862 189.591 159.562 189.375C158.042 194.445 154.92 195.855 153.14 196.27C151.78 196.524 150.563 197.273 149.725 198.371C135.479 218.766 125.604 228.324 118.646 228.459L118.495 228.469ZM154.205 183.921C153.564 183.921 152.929 184.049 152.338 184.297C151.747 184.546 151.212 184.91 150.764 185.368L146.89 189.337C146.837 189.391 146.777 189.439 146.712 189.477C146.463 189.618 121.79 203.517 116.763 207.804L115.562 208.814C110.887 212.713 107.197 215.791 113.436 224.025C114.907 225.964 116.59 226.882 118.592 226.844C124.901 226.725 134.64 217.124 148.351 197.453C149.419 196.018 150.986 195.034 152.745 194.694C154.563 194.289 156.976 192.847 158.155 188.3C158.205 188.107 158.324 187.939 158.489 187.828C158.655 187.717 158.856 187.669 159.053 187.696C161.142 187.993 166.336 188.176 167.711 186.005L155.033 183.991C154.761 183.936 154.484 183.903 154.205 183.894V183.921Z" fill="black"/>
<path d="M171.887 151.873C172.542 152.2 173.284 152.31 174.006 152.19C174.728 152.07 175.394 151.725 175.907 151.204C177.038 150.066 178.028 148.797 178.856 147.424L180.382 147.456C180.616 147.46 180.842 147.372 181.013 147.212C181.183 147.051 181.285 146.831 181.296 146.598L181.556 140.658C182.513 139.211 183.114 137.559 183.309 135.836C183.493 133.628 181.523 129.664 179.521 128.692C176.816 127.38 171.946 126.667 169.398 130.49C168.316 132.11 166.525 133.309 165.454 133.115C164.382 132.92 164.025 132.072 163.527 131.176C162.597 129.508 160.281 127.936 158.063 130.577C155.844 133.217 157.37 135.707 158.766 137.753C159.307 138.579 158.723 140.874 158.495 141.851L155.2 155.853C154.783 157.627 153.937 159.272 152.737 160.644C151.536 162.016 150.017 163.074 148.312 163.726L144.79 165.076C144.79 165.076 148.68 176.864 164.269 176.529C176.172 176.275 175.258 166.529 175.258 166.529L173.694 165.843C171.71 164.968 170.092 163.433 169.117 161.499C168.142 159.566 167.87 157.354 168.348 155.243L169.398 150.621L171.887 151.873Z" fill="white"/>
<path d="M163.641 177.366C148.172 177.366 144.065 165.486 144.022 165.346C143.957 165.148 143.971 164.933 144.06 164.745C144.15 164.557 144.309 164.41 144.504 164.336L148.026 162.986C149.607 162.382 151.016 161.401 152.13 160.128C153.244 158.856 154.028 157.33 154.416 155.686L157.765 141.452C158.306 139.179 158.247 138.439 158.101 138.212C156.845 136.365 154.735 133.271 157.446 130.058C158.745 128.514 160.049 128.287 160.914 128.374C162.456 128.519 163.647 129.713 164.242 130.782L164.339 130.96C164.783 131.765 165.059 132.224 165.6 132.321C166.141 132.418 167.699 131.586 168.727 130.042C171.325 126.143 176.329 126.235 179.884 127.969C182.26 129.124 184.321 133.493 184.121 135.906C183.92 137.682 183.319 139.39 182.362 140.901L182.108 146.636C182.088 147.08 181.895 147.498 181.569 147.801C181.243 148.104 180.811 148.267 180.366 148.256H179.284C178.47 149.524 177.525 150.704 176.465 151.776C175.829 152.419 175.007 152.844 174.115 152.991C173.223 153.139 172.306 153.001 171.498 152.597L169.956 151.825L169.139 155.437C168.703 157.364 168.95 159.382 169.838 161.148C170.726 162.913 172.199 164.317 174.008 165.119L175.572 165.805C175.704 165.865 175.818 165.958 175.902 166.075C175.987 166.193 176.039 166.331 176.054 166.474C176.201 169.129 175.324 171.74 173.602 173.77C171.552 176.065 168.414 177.269 164.269 177.355L163.641 177.366ZM145.851 165.551C146.96 168.04 151.516 176.005 164.247 175.741C167.916 175.66 170.659 174.661 172.39 172.711C173.722 171.135 174.456 169.141 174.463 167.079L173.381 166.599C171.226 165.647 169.468 163.979 168.409 161.878C167.349 159.778 167.052 157.375 167.57 155.081L168.619 150.459C168.647 150.341 168.701 150.231 168.778 150.137C168.855 150.043 168.952 149.969 169.063 149.919C169.173 149.865 169.294 149.837 169.417 149.837C169.54 149.837 169.661 149.865 169.772 149.919L172.244 151.155C172.749 151.403 173.32 151.484 173.875 151.387C174.429 151.29 174.938 151.02 175.328 150.615C176.411 149.527 177.361 148.314 178.158 147.003C178.231 146.881 178.335 146.781 178.46 146.713C178.584 146.644 178.725 146.61 178.867 146.614L180.393 146.646C180.405 146.648 180.417 146.647 180.428 146.644C180.439 146.64 180.45 146.634 180.458 146.625C180.467 146.617 180.473 146.607 180.477 146.595C180.48 146.584 180.481 146.572 180.479 146.56L180.745 140.62C180.748 140.482 180.789 140.348 180.864 140.232C181.745 138.889 182.301 137.36 182.487 135.766C182.649 133.768 180.782 130.21 179.154 129.416C177.044 128.39 172.428 127.38 170.064 130.933C168.982 132.591 166.915 134.173 165.302 133.908C163.971 133.676 163.403 132.645 162.9 131.748L162.808 131.576C162.605 131.173 162.314 130.822 161.956 130.547C161.598 130.272 161.183 130.081 160.741 129.988C160.049 129.923 159.351 130.301 158.669 131.106C156.894 133.212 157.911 135.08 159.426 137.305C160.097 138.288 159.746 140.075 159.324 141.819L159.275 142.04L155.98 156.047C155.533 157.949 154.626 159.713 153.339 161.184C152.051 162.655 150.422 163.789 148.594 164.487L145.851 165.551Z" fill="black"/>
<path d="M240.912 217.54H189.916L227.715 159.53C228.309 158.631 229.118 157.893 230.069 157.384C231.021 156.874 232.084 156.61 233.164 156.614H274.54C275.126 156.601 275.705 156.746 276.215 157.035C276.726 157.323 277.148 157.744 277.438 158.253C277.727 158.762 277.874 159.34 277.861 159.925C277.848 160.51 277.676 161.081 277.364 161.577L240.912 217.54Z" fill="black"/>
<path d="M251.788 176.961C250.132 179.504 246.572 181.561 243.829 181.561C241.085 181.561 240.214 179.504 241.875 176.961C243.536 174.417 247.091 172.355 249.829 172.355C252.567 172.355 253.443 174.417 251.788 176.961Z" fill="#CADDFF"/>
<path d="M235.827 222.384H150.959C149.562 222.384 148.221 221.83 147.233 220.843C146.245 219.857 145.689 218.519 145.689 217.124H241.097C241.097 218.519 240.541 219.857 239.553 220.843C238.565 221.83 237.224 222.384 235.827 222.384Z" fill="black"/>
<path d="M238.262 218.404H194.479C194.263 218.404 194.057 218.319 193.905 218.167C193.753 218.015 193.667 217.809 193.667 217.594C193.667 217.379 193.753 217.173 193.905 217.022C194.057 216.87 194.263 216.784 194.479 216.784H238.262C238.477 216.784 238.684 216.87 238.836 217.022C238.988 217.173 239.074 217.379 239.074 217.594C239.074 217.809 238.988 218.015 238.836 218.167C238.684 218.319 238.477 218.404 238.262 218.404Z" fill="white"/>
<path d="M230.409 223.07C253.832 225.186 245.196 218.183 244.201 213.728L229.917 220.624C229.661 220.749 229.453 220.956 229.327 221.211C229.201 221.467 229.163 221.757 229.22 222.036C229.276 222.315 229.423 222.568 229.638 222.755C229.853 222.942 230.124 223.052 230.409 223.07Z" fill="white"/>
<path d="M237.779 224.252C235.782 224.252 233.337 224.139 230.339 223.863C229.871 223.829 229.428 223.64 229.079 223.326C228.73 223.012 228.496 222.591 228.413 222.13C228.325 221.681 228.391 221.215 228.6 220.808C228.809 220.4 229.149 220.075 229.566 219.884L243.844 212.988C243.954 212.935 244.074 212.906 244.196 212.905C244.317 212.904 244.438 212.931 244.548 212.983C244.658 213.035 244.755 213.111 244.832 213.205C244.909 213.299 244.963 213.41 244.992 213.528C245.248 214.405 245.598 215.252 246.036 216.055C246.977 217.967 248.049 220.132 246.853 221.876C246.052 223.07 244.218 224.252 237.779 224.252ZM243.731 214.856L230.301 221.336C230.206 221.374 230.127 221.444 230.079 221.533C230.03 221.623 230.015 221.728 230.036 221.828C230.056 221.941 230.114 222.044 230.201 222.12C230.287 222.195 230.397 222.239 230.512 222.243C241.518 223.237 244.759 222.092 245.538 220.958C246.198 219.997 245.392 218.356 244.607 216.768C244.266 216.142 243.947 215.51 243.704 214.856H243.731Z" fill="black"/>
<path d="M171.072 395.998L162.81 420.61C162.81 420.61 171.813 419.843 172.673 420.011C173.534 420.178 184.068 397.564 184.068 397.564L171.072 395.998Z" fill="white"/>
<path d="M162.804 421.42C162.682 421.42 162.562 421.392 162.452 421.339C162.343 421.285 162.247 421.208 162.171 421.112C162.087 421.008 162.03 420.884 162.007 420.751C161.983 420.619 161.993 420.483 162.036 420.356L170.303 395.739C170.363 395.563 170.482 395.413 170.64 395.314C170.798 395.216 170.985 395.175 171.169 395.199L184.155 396.765C184.282 396.78 184.404 396.825 184.51 396.896C184.616 396.968 184.704 397.063 184.766 397.175C184.828 397.286 184.863 397.411 184.868 397.539C184.873 397.666 184.847 397.793 184.793 397.909C184.766 397.969 182.126 403.633 179.41 409.211C173.658 421.037 173.296 420.972 172.506 420.815C171.932 420.729 167.149 421.058 162.864 421.425L162.804 421.42ZM171.635 396.878L163.946 419.703C166.467 419.498 170.85 419.163 172.37 419.163C173.685 417.462 179.231 405.987 182.883 398.233L171.635 396.878Z" fill="black"/>
<path d="M164.697 415.199C164.697 415.199 177.142 410.113 179.43 416.501C182.358 424.6 186.93 437.02 186.93 437.02C187.11 437.523 187.172 438.06 187.111 438.591C187.049 439.121 186.866 439.631 186.576 440.079C186.285 440.528 185.895 440.904 185.436 441.177C184.977 441.451 184.46 441.616 183.927 441.658C179.382 442.02 172.608 442.317 169.448 441.21C164.464 439.466 156.191 423.726 156.191 423.726L158.745 410.329C158.745 410.329 163.252 409.681 164.697 415.199Z" fill="#99B9FF"/>
<path d="M176.606 442.787C173.668 442.787 170.925 442.576 169.178 441.966C164.043 440.168 156.338 425.729 155.478 424.088C155.388 423.922 155.36 423.731 155.397 423.548L157.945 410.151C157.977 409.984 158.061 409.831 158.184 409.714C158.307 409.597 158.464 409.521 158.632 409.497C158.681 409.497 163.377 408.898 165.222 414.125C167.435 413.331 173.501 411.425 177.315 413.142C177.984 413.423 178.586 413.841 179.082 414.37C179.578 414.898 179.957 415.525 180.194 416.209C183.083 424.233 187.644 436.588 187.688 436.728C187.912 437.348 187.99 438.011 187.916 438.666C187.841 439.32 187.617 439.949 187.259 440.503C186.902 441.057 186.421 441.521 185.854 441.859C185.287 442.197 184.65 442.4 183.992 442.452C181.714 442.636 179.095 442.787 176.606 442.787ZM157.047 423.585C159.422 428.062 165.947 439.121 169.719 440.438C172.024 441.243 177.045 441.388 183.862 440.838C184.272 440.807 184.669 440.681 185.022 440.471C185.375 440.262 185.675 439.973 185.898 439.629C186.12 439.284 186.26 438.892 186.306 438.485C186.352 438.077 186.302 437.665 186.162 437.279C186.119 437.166 181.563 424.8 178.668 416.76C178.507 416.277 178.244 415.835 177.896 415.462C177.549 415.09 177.126 414.796 176.655 414.6C172.651 412.824 165.082 415.88 165.006 415.912C164.901 415.96 164.786 415.985 164.67 415.985C164.555 415.985 164.44 415.96 164.335 415.912C164.23 415.857 164.139 415.78 164.066 415.687C163.993 415.594 163.941 415.487 163.913 415.372C162.944 411.673 160.526 411.123 159.422 411.052L157.047 423.585Z" fill="black"/>
<path d="M183.743 437.096H170.98C170.764 437.096 170.558 437.01 170.406 436.858C170.253 436.707 170.168 436.5 170.168 436.286C170.168 436.071 170.253 435.865 170.406 435.713C170.558 435.561 170.764 435.476 170.98 435.476H183.749C183.964 435.476 184.171 435.561 184.323 435.713C184.475 435.865 184.56 436.071 184.56 436.286C184.56 436.5 184.475 436.707 184.323 436.858C184.171 437.01 183.964 437.096 183.749 437.096H183.743Z" fill="black"/>
<path d="M147.632 402.046L150.44 426.804L161.743 423.715L160.872 401.403L147.632 402.046Z" fill="white"/>
<path d="M150.418 427.614C150.257 427.615 150.098 427.568 149.964 427.479C149.867 427.412 149.785 427.326 149.724 427.225C149.664 427.124 149.625 427.012 149.612 426.895L146.804 402.137C146.79 402.027 146.8 401.915 146.832 401.808C146.864 401.702 146.918 401.603 146.99 401.518C147.062 401.434 147.151 401.365 147.251 401.316C147.352 401.267 147.461 401.24 147.572 401.236L160.812 400.593C160.919 400.587 161.026 400.602 161.126 400.638C161.227 400.674 161.319 400.731 161.397 400.804C161.476 400.876 161.54 400.963 161.586 401.061C161.631 401.158 161.657 401.263 161.662 401.371L162.533 423.682C162.539 423.865 162.483 424.045 162.374 424.192C162.265 424.339 162.109 424.445 161.932 424.492L150.635 427.587C150.564 427.606 150.491 427.615 150.418 427.614ZM148.514 402.812L151.116 425.772L160.883 423.099L160.071 402.251L148.514 402.812Z" fill="black"/>
<path d="M149.374 445.05H167.257C167.826 445.049 168.388 444.927 168.906 444.69C169.423 444.454 169.884 444.109 170.256 443.679C170.628 443.25 170.903 442.745 171.063 442.2C171.222 441.654 171.262 441.081 171.179 440.519C170.579 436.485 168.636 429.806 162.804 420.61C162.491 420.116 162.058 419.708 161.545 419.425C161.033 419.142 160.457 418.992 159.871 418.99H154.433C153.983 418.989 153.548 419.153 153.211 419.452C152.875 419.751 152.661 420.163 152.61 420.61L152.199 424.525L150.576 422.835C150.428 422.682 150.243 422.569 150.039 422.508C149.835 422.448 149.619 422.441 149.412 422.488C149.204 422.535 149.012 422.635 148.855 422.778C148.698 422.921 148.58 423.103 148.514 423.305C146.637 429.022 145.598 434.98 145.43 440.994C145.417 441.52 145.509 442.044 145.701 442.534C145.894 443.024 146.182 443.471 146.549 443.848C146.916 444.226 147.355 444.527 147.84 444.733C148.326 444.939 148.847 445.047 149.374 445.05Z" fill="#99B9FF"/>
<path d="M167.257 445.859H149.374C148.739 445.859 148.111 445.732 147.525 445.486C146.94 445.241 146.409 444.881 145.965 444.429C145.52 443.977 145.17 443.44 144.935 442.852C144.7 442.263 144.585 441.633 144.596 441C144.767 434.909 145.816 428.875 147.713 423.083C147.824 422.75 148.019 422.451 148.28 422.215C148.54 421.978 148.857 421.813 149.2 421.734C149.543 421.656 149.9 421.666 150.238 421.766C150.575 421.865 150.882 422.049 151.127 422.3L151.565 422.748L151.798 420.551C151.865 419.902 152.171 419.301 152.657 418.865C153.143 418.429 153.774 418.189 154.428 418.191H159.866C160.588 418.188 161.3 418.369 161.933 418.717C162.566 419.065 163.101 419.568 163.485 420.178C169.41 429.52 171.369 436.329 171.975 440.4C172.074 441.077 172.026 441.768 171.835 442.425C171.643 443.082 171.312 443.69 170.864 444.208C170.415 444.726 169.861 445.141 169.238 445.426C168.614 445.711 167.937 445.859 167.251 445.859H167.257ZM149.666 423.299H149.569C149.498 423.314 149.432 423.347 149.377 423.395C149.323 423.444 149.283 423.506 149.261 423.575C147.41 429.215 146.386 435.094 146.22 441.027C146.213 441.444 146.29 441.859 146.446 442.247C146.601 442.635 146.832 442.988 147.126 443.286C147.419 443.584 147.769 443.821 148.155 443.983C148.541 444.144 148.956 444.228 149.374 444.229H167.257C167.709 444.229 168.156 444.132 168.568 443.944C168.979 443.756 169.345 443.482 169.641 443.14C169.937 442.798 170.155 442.397 170.282 441.963C170.408 441.53 170.439 441.074 170.373 440.627C169.794 436.712 167.89 430.135 162.122 421.037C161.879 420.66 161.546 420.351 161.153 420.135C160.76 419.919 160.319 419.804 159.871 419.8H154.433C154.181 419.799 153.938 419.891 153.75 420.058C153.562 420.226 153.443 420.457 153.416 420.707L153.005 424.622C152.989 424.776 152.93 424.921 152.834 425.042C152.738 425.163 152.609 425.254 152.463 425.305C152.317 425.355 152.159 425.363 152.009 425.327C151.859 425.291 151.722 425.214 151.614 425.103L149.991 423.418C149.949 423.375 149.898 423.342 149.842 423.322C149.786 423.301 149.726 423.293 149.666 423.299Z" fill="black"/>
<path d="M167.273 441.594H149.163C148.948 441.594 148.741 441.508 148.589 441.356C148.437 441.204 148.352 440.998 148.352 440.784C148.352 440.569 148.437 440.363 148.589 440.211C148.741 440.059 148.948 439.974 149.163 439.974H167.273C167.488 439.974 167.695 440.059 167.847 440.211C167.999 440.363 168.084 440.569 168.084 440.784C168.084 440.998 167.999 441.204 167.847 441.356C167.695 441.508 167.488 441.594 167.273 441.594Z" fill="black"/>
<path d="M190.068 253.308C189.838 252.745 189.487 252.239 189.039 251.827C188.591 251.414 188.057 251.105 187.476 250.922C178.651 248.3 169.361 247.618 160.247 248.923C151.132 250.228 142.409 253.489 134.678 258.481C134.131 258.83 133.673 259.302 133.342 259.859C133.01 260.416 132.814 261.042 132.768 261.689C131.919 273.568 128.759 335.796 148.459 409.449L161.781 408.547L164.486 282.613C164.486 282.613 184.159 328.781 168.16 402.256L181.979 404.805C181.979 404.805 202.193 378.27 205.813 337.729C209 301.869 193.655 262.045 190.068 253.308Z" fill="black"/>
<path d="M151.862 351.25H151.825C139.299 350.71 137.881 333.754 137.87 333.582C137.855 333.367 137.925 333.155 138.066 332.992C138.207 332.828 138.407 332.728 138.622 332.712C138.838 332.697 139.05 332.767 139.214 332.908C139.377 333.048 139.478 333.248 139.494 333.463C139.494 333.619 140.814 349.155 151.9 349.63C152.007 349.632 152.112 349.655 152.21 349.698C152.307 349.74 152.396 349.802 152.469 349.879C152.543 349.955 152.601 350.046 152.64 350.145C152.679 350.244 152.698 350.35 152.696 350.456C152.694 350.562 152.67 350.667 152.628 350.765C152.585 350.862 152.523 350.95 152.447 351.024C152.37 351.098 152.279 351.156 152.18 351.194C152.08 351.233 151.974 351.252 151.868 351.25H151.862Z" fill="#CADDFF"/>
<path d="M165.622 294.968C165.41 294.968 165.207 294.885 165.055 294.738C164.904 294.591 164.816 294.39 164.81 294.179L164.485 282.219C164.444 280.92 164.728 279.631 165.311 278.469C165.894 277.306 166.757 276.307 167.824 275.561L172.996 271.932C173.083 271.863 173.183 271.812 173.29 271.782C173.397 271.753 173.509 271.746 173.619 271.761C173.729 271.777 173.835 271.814 173.929 271.872C174.024 271.93 174.106 272.007 174.17 272.098C174.234 272.188 174.278 272.291 174.3 272.4C174.323 272.508 174.323 272.62 174.3 272.729C174.277 272.837 174.232 272.94 174.168 273.031C174.104 273.121 174.022 273.198 173.927 273.255L168.754 276.884C167.908 277.477 167.223 278.271 166.761 279.193C166.298 280.116 166.072 281.139 166.103 282.17L166.46 294.131C166.466 294.345 166.387 294.553 166.24 294.71C166.093 294.867 165.891 294.959 165.676 294.968H165.622Z" fill="#CADDFF"/>
</g>
<defs>
<clipPath id="clip0_707_3">
<rect width="606" height="446" fill="white"/>
</clipPath>
</defs>
</svg>
